#!OML:ASF F:\VICON\USERDATA\INSTALL\rory3\rory3.ASF
:FULLY-SPECIFIED
:DEGREES
67
root 0.352301 17.9501 4.57764 2.89001 2.94211 -2.77556
lowerback 16.4311 0.753075 1.35904
upperback 1.74443 1.15998 -1.02337
thorax -7.29923 0.507253 -2.12458
lowerneck -5.02306 -0.77545 -1.05978
upperneck -10.3391 -0.798665 2.67089
head -2.39192 -0.413521 1.03202
rclavicle 5.36719e-015 -2.38542e-015
rhumerus -41.2142 15.9861 -90.1886
rradius 96.3856
rwrist -5.03753
rhand -34.1419 34.6129
rfingers 7.12502
rthumb -7.31652 4.75937
lclavicle 5.36719e-015 -2.38542e-015
lhumerus -51.0261 -7.88044 91.2103
lradius 107.85
lwrist 29.355
lhand -33.4177 13.0528
lfingers 7.12502
lthumb -6.6175 42.9294
rfemur 5.22693 -3.0673 27.5968
rtibia 87.179
rfoot 24.5577 -12.235
rtoes 26.207
lfemur -26.3678 1.86816 -21.2827
ltibia 28.7937
lfoot -1.80477 -7.84961
ltoes -10.2171
68
root 0.346579 17.8119 5.0897 2.54054 3.43104 -2.39852
lowerback 16.9566 0.499529 0.851063
upperback 1.78834 0.731594 -1.08429
thorax -7.56647 0.311618 -1.81451
lowerneck -4.95003 -0.779898 -1.25846
upperneck -10.0586 -0.785058 2.97011
head -2.31172 -0.406115 1.15966
rclavicle -1.88845e-014 -2.38542e-015
rhumerus -42.2287 15.1009 -90.2155
rradius 94.163
rwrist -4.26693
rhand -35.0222 34.4398
rfingers 7.12502
rthumb -8.16619 4.61757
lclavicle -1.88845e-014 -2.38542e-015
lhumerus -49.3381 -8.74378 91.2622
lradius 108.387
lwrist 29.2127
lhand -33.9332 13.3953
lfingers 7.12502
lthumb -7.11511 43.2557
rfemur 3.23523 -4.70921 26.019
rtibia 91.987
rfoot 23.1174 -12.4976
rtoes 27.9929
lfemur -25.5835 1.68238 -21.7879
ltibia 31.5008
lfoot -5.14342 -8.0749
ltoes -10.0672
69
root 0.356364 17.7047 5.60372 2.27507 3.91642 -1.84723
lowerback 17.4244 0.213308 0.344536
upperback 1.90721 0.251422 -1.19517
thorax -7.71466 0.0934076 -1.5387
lowerneck -5.2173 -0.765722 -1.30184
upperneck -9.73725 -0.769557 2.9931
head -2.15948 -0.394472 1.16867
rclavicle -5.76476e-015 -3.26007e-014
rhumerus -42.923 14.2106 -90.0444
rradius 91.8982
rwrist -3.69678
rhand -35.3382 34.0914
rfingers 7.12502
rthumb -8.47116 4.28126
lclavicle -5.76476e-015 -3.26007e-014
lhumerus -47.2737 -9.57063 91.2868
lradius 109.018
lwrist 29.1479
lhand -33.0704 13.7404
lfingers 7.12502
lthumb -6.2822 43.6272
rfemur 1.22865 -6.27499 24.089
rtibia 96.3794
rfoot 23.1643 -11.7407
rtoes 34.5644
lfemur -25.0711 1.34879 -22.5768
ltibia 34.0871
lfoot -7.29125 -8.51895
ltoes -8.97082
70
root 0.368271 17.6179 6.10206 2.15496 4.23643 -1.31793
lowerback 17.8878 0.00210126 -0.109983
upperback 1.9554 -0.12749 -1.33054
thorax -7.92745 -0.0775883 -1.3384
lowerneck -5.17851 -0.793378 -1.42902
upperneck -9.80288 -0.792913 3.13691
head -2.18724 -0.405725 1.23785
rclavicle 1.47101e-014 -3.18055e-015
rhumerus -43.6559 12.9858 -89.7797
rradius 89.6866
rwrist -3.34425
rhand -34.8492 34.1267
rfingers 7.12502
rthumb -7.99925 4.29802
lclavicle 1.47101e-014 -3.18055e-015
lhumerus -44.9361 -10.6339 91.243
lradius 109.588
lwrist 29.247
lhand -32.0319 13.9424
lfingers 7.12502
lthumb -5.27949 43.8566
rfemur -1.25497 -7.6647 22.1802
rtibia 100.588
rfoot 23.4805 -11.1418
rtoes 39.8696
lfemur -24.543 1.09293 -23.3479
ltibia 36.2436
lfoot -8.74664 -7.25052
ltoes -8.09173
71
root 0.378934 17.547 6.60196 1.84425 4.14833 -0.237781
lowerback 18.4508 0.00350846 -1.14392
upperback 2.15166 -0.366494 -1.69188
thorax -8.02476 -0.164752 -1.08211
lowerneck -4.97404 -0.849617 -1.70746
upperneck -10.2127 -0.819333 3.61836
head -2.35808 -0.423286 1.44866
rclavicle -1.98785e-016 1.43125e-014
rhumerus -44.4003 11.4284 -89.4889
rradius 87.5039
rwrist -2.34567
rhand -35.0118 34.0052
rfingers 7.12502
rthumb -8.15614 4.18262
lclavicle -1.98785e-016 1.43125e-014
lhumerus -42.1916 -11.8474 90.9876
lradius 109.901
lwrist 29.1334
lhand -32.2333 14.5193
lfingers 7.12502
lthumb -5.47395 44.4286
rfemur -3.54347 -8.63618 19.5653
rtibia 104.534
rfoot 23.8003 -10.8147
rtoes 42.5688
lfemur -22.9902 1.04638 -24.6235
ltibia 37.8204
lfoot -10.7772 -5.31918
ltoes -6.93485
72
root 0.388319 17.4678 7.11042 1.74069 3.41192 1.9432
lowerback 18.4344 0.368753 -3.40158
upperback 2.55392 -0.381055 -2.37507
thorax -7.56974 -0.117889 -0.528774
lowerneck -4.91838 -0.911851 -1.97088
upperneck -10.9568 -0.837079 4.14698
head -2.61715 -0.439276 1.67883
rclavicle -3.37934e-015 2.62396e-014
rhumerus -44.777 9.75047 -89.0444
rradius 85.3497
rwrist -1.1621
rhand -35.879 34.0218
rfingers 7.12502
rthumb -8.99304 4.23348
lclavicle -3.37934e-015 2.62396e-014
lhumerus -38.9228 -13.0562 90.474
lradius 110.081
lwrist 29.0354
lhand -33.0125 15.5113
lfingers 7.12502
lthumb -6.22632 45.3998
rfemur -6.40649 -9.00887 15.6485
rtibia 108.441
rfoot 23.7025 -9.12093
rtoes 41.3846
lfemur -21.1284 1.22553 -27.0381
ltibia 38.8499
lfoot -13.1682 -4.26363
ltoes -6.5674
